<svg xmlns="http://www.w3.org/2000/svg" xmlns:xlink="http://www.w3.org/1999/xlink" width="518" zoomAndPan="magnify" viewBox="0 0 388.5 89.999999" height="120" preserveAspectRatio="xMidYMid meet" version="1.0"><defs><g/><clipPath id="90352a0495"><path d="M 34.832031 4.203125 L 105 4.203125 L 105 85.730469 L 34.832031 85.730469 Z M 34.832031 4.203125 " clip-rule="nonzero"/></clipPath></defs><g clip-path="url(#90352a0495)"><path fill="#5900bd" d="M 70.070312 34.296875 L 69.933594 24.855469 L 63.167969 24.855469 C 63.167969 24.855469 35.164062 42.601562 35.171875 42.304688 L 34.902344 85.796875 L 81.78125 85.679688 C 103.425781 85.621094 108.59375 62.609375 100.933594 51.464844 L 90.941406 57.695312 C 95.660156 64.121094 92.636719 73.535156 81.519531 73.535156 L 47.171875 73.503906 L 47.441406 49.175781 Z M 91.800781 29.851562 C 90.941406 32.640625 88.21875 35.117188 85.074219 37.300781 C 81.847656 39.53125 78.191406 41.46875 75.660156 43.113281 L 58.136719 54.34375 L 58.28125 68.414062 L 72.386719 59.648438 C 89.558594 48.261719 105.503906 43.257812 104.617188 24.5 C 104.3125 17.851562 101.242188 11.613281 97.796875 8.503906 C 93.417969 4.539062 89.277344 4.203125 83.773438 4.203125 L 34.835938 4.203125 L 34.855469 30.496094 L 47.136719 23.652344 L 47.296875 16.222656 L 84.464844 16.222656 C 91.972656 16.222656 93.609375 23.902344 91.800781 29.851562 Z M 91.800781 29.851562 " fill-opacity="1" fill-rule="evenodd"/></g><g fill="#1f2020" fill-opacity="1"><g transform="translate(130.567673, 65.32091)"><g><path d="M 24.828125 -22.015625 C 27.222656 -21.566406 29.253906 -20.347656 30.921875 -18.359375 C 32.585938 -16.367188 33.421875 -14.050781 33.421875 -11.40625 C 33.421875 -9.25 32.878906 -7.304688 31.796875 -5.578125 C 30.722656 -3.847656 29.148438 -2.484375 27.078125 -1.484375 C 25.003906 -0.492188 22.523438 0 19.640625 0 L 4.875 0 L 4.875 -42.625 L 19.203125 -42.625 C 23.515625 -42.625 26.796875 -41.628906 29.046875 -39.640625 C 31.304688 -37.648438 32.4375 -35.066406 32.4375 -31.890625 C 32.4375 -29.253906 31.722656 -27.109375 30.296875 -25.453125 C 28.878906 -23.804688 27.054688 -22.660156 24.828125 -22.015625 Z M 9.140625 -23.78125 L 19.09375 -23.78125 C 21.976562 -23.78125 24.203125 -24.460938 25.765625 -25.828125 C 27.328125 -27.191406 28.109375 -29.070312 28.109375 -31.46875 C 28.109375 -33.820312 27.328125 -35.671875 25.765625 -37.015625 C 24.203125 -38.359375 21.914062 -39.03125 18.90625 -39.03125 L 9.140625 -39.03125 Z M 19.328125 -3.59375 C 22.421875 -3.59375 24.832031 -4.320312 26.5625 -5.78125 C 28.289062 -7.25 29.15625 -9.265625 29.15625 -11.828125 C 29.15625 -14.390625 28.25 -16.429688 26.4375 -17.953125 C 24.625 -19.484375 22.195312 -20.25 19.15625 -20.25 L 9.140625 -20.25 L 9.140625 -3.59375 Z M 19.328125 -3.59375 "/></g></g></g><g fill="#1f2020" fill-opacity="1"><g transform="translate(171.361915, 65.32091)"><g><path d="M 19.453125 0.484375 C 16.328125 0.484375 13.507812 -0.210938 11 -1.609375 C 8.5 -3.015625 6.523438 -5.007812 5.078125 -7.59375 C 3.640625 -10.175781 2.921875 -13.195312 2.921875 -16.65625 C 2.921875 -20.101562 3.648438 -23.117188 5.109375 -25.703125 C 6.578125 -28.285156 8.570312 -30.273438 11.09375 -31.671875 C 13.613281 -33.078125 16.441406 -33.78125 19.578125 -33.78125 C 22.703125 -33.78125 25.535156 -33.078125 28.078125 -31.671875 C 30.617188 -30.273438 32.609375 -28.285156 34.046875 -25.703125 C 35.492188 -23.117188 36.21875 -20.101562 36.21875 -16.65625 C 36.21875 -13.238281 35.484375 -10.226562 34.015625 -7.625 C 32.554688 -5.019531 30.546875 -3.015625 27.984375 -1.609375 C 25.429688 -0.210938 22.585938 0.484375 19.453125 0.484375 Z M 19.453125 -3.234375 C 21.648438 -3.234375 23.679688 -3.726562 25.546875 -4.71875 C 27.421875 -5.71875 28.9375 -7.222656 30.09375 -9.234375 C 31.25 -11.253906 31.828125 -13.726562 31.828125 -16.65625 C 31.828125 -19.582031 31.257812 -22.050781 30.125 -24.0625 C 28.988281 -26.070312 27.484375 -27.570312 25.609375 -28.5625 C 23.742188 -29.5625 21.710938 -30.0625 19.515625 -30.0625 C 17.316406 -30.0625 15.28125 -29.5625 13.40625 -28.5625 C 11.539062 -27.570312 10.046875 -26.070312 8.921875 -24.0625 C 7.804688 -22.050781 7.25 -19.582031 7.25 -16.65625 C 7.25 -13.726562 7.804688 -11.253906 8.921875 -9.234375 C 10.046875 -7.222656 11.53125 -5.71875 13.375 -4.71875 C 15.226562 -3.726562 17.253906 -3.234375 19.453125 -3.234375 Z M 19.453125 -3.234375 "/></g></g></g><g fill="#1f2020" fill-opacity="1"><g transform="translate(214.900067, 65.32091)"><g><path d="M 19.453125 0.484375 C 16.328125 0.484375 13.507812 -0.210938 11 -1.609375 C 8.5 -3.015625 6.523438 -5.007812 5.078125 -7.59375 C 3.640625 -10.175781 2.921875 -13.195312 2.921875 -16.65625 C 2.921875 -20.101562 3.648438 -23.117188 5.109375 -25.703125 C 6.578125 -28.285156 8.570312 -30.273438 11.09375 -31.671875 C 13.613281 -33.078125 16.441406 -33.78125 19.578125 -33.78125 C 22.703125 -33.78125 25.535156 -33.078125 28.078125 -31.671875 C 30.617188 -30.273438 32.609375 -28.285156 34.046875 -25.703125 C 35.492188 -23.117188 36.21875 -20.101562 36.21875 -16.65625 C 36.21875 -13.238281 35.484375 -10.226562 34.015625 -7.625 C 32.554688 -5.019531 30.546875 -3.015625 27.984375 -1.609375 C 25.429688 -0.210938 22.585938 0.484375 19.453125 0.484375 Z M 19.453125 -3.234375 C 21.648438 -3.234375 23.679688 -3.726562 25.546875 -4.71875 C 27.421875 -5.71875 28.9375 -7.222656 30.09375 -9.234375 C 31.25 -11.253906 31.828125 -13.726562 31.828125 -16.65625 C 31.828125 -19.582031 31.257812 -22.050781 30.125 -24.0625 C 28.988281 -26.070312 27.484375 -27.570312 25.609375 -28.5625 C 23.742188 -29.5625 21.710938 -30.0625 19.515625 -30.0625 C 17.316406 -30.0625 15.28125 -29.5625 13.40625 -28.5625 C 11.539062 -27.570312 10.046875 -26.070312 8.921875 -24.0625 C 7.804688 -22.050781 7.25 -19.582031 7.25 -16.65625 C 7.25 -13.726562 7.804688 -11.253906 8.921875 -9.234375 C 10.046875 -7.222656 11.53125 -5.71875 13.375 -4.71875 C 15.226562 -3.726562 17.253906 -3.234375 19.453125 -3.234375 Z M 19.453125 -3.234375 "/></g></g></g><g fill="#1f2020" fill-opacity="1"><g transform="translate(258.438218, 65.32091)"><g><path d="M 22.875 0 L 9.140625 -14.9375 L 9.140625 0 L 4.875 0 L 4.875 -45.125 L 9.140625 -45.125 L 9.140625 -18.421875 L 22.5625 -33.296875 L 28.546875 -33.296875 L 12.75 -16.703125 L 28.65625 0 Z M 22.875 0 "/></g></g></g><g fill="#1f2020" fill-opacity="1"><g transform="translate(292.098285, 65.32091)"><g><path d="M 9.140625 -45.125 L 9.140625 0 L 4.875 0 L 4.875 -45.125 Z M 9.140625 -45.125 "/></g></g></g><g fill="#1f2020" fill-opacity="1"><g transform="translate(310.453404, 65.32091)"><g><path d="M 32.328125 -33.296875 L 12.5625 15.671875 L 8.109375 15.671875 L 14.578125 -0.1875 L 0.921875 -33.296875 L 5.609375 -33.296875 L 16.953125 -4.875 L 27.9375 -33.296875 Z M 32.328125 -33.296875 "/></g></g></g></svg>